<mxfile host="Electron" agent="Mozilla/5.0 (Windows NT 10.0; Win64; x64) AppleWebKit/537.36 (KHTML, like Gecko) draw.io/24.7.17 Chrome/128.0.6613.36 Electron/32.0.1 Safari/537.36" version="24.7.17">
  <diagram name="Page-1" id="ShuaSudeg9hR4NvFuHb4">
    <mxGraphModel dx="2206" dy="1286" grid="1" gridSize="10" guides="1" tooltips="1" connect="1" arrows="1" fold="1" page="1" pageScale="1" pageWidth="850" pageHeight="1100" math="0" shadow="0">
      <root>
        <mxCell id="0" />
        <mxCell id="1" parent="0" />
        <mxCell id="asSUr_-GE05iVPSnQASm-1" style="edgeStyle=orthogonalEdgeStyle;rounded=0;orthogonalLoop=1;jettySize=auto;html=1;endArrow=ERzeroToOne;endFill=0;startArrow=ERmany;startFill=0;" edge="1" parent="1" source="asSUr_-GE05iVPSnQASm-2" target="asSUr_-GE05iVPSnQASm-8">
          <mxGeometry relative="1" as="geometry" />
        </mxCell>
        <mxCell id="asSUr_-GE05iVPSnQASm-2" value="&lt;span style=&quot;font-weight: 700; text-wrap: nowrap;&quot;&gt;Carros_Manutencao&lt;/span&gt;" style="rounded=1;whiteSpace=wrap;html=1;" vertex="1" parent="1">
          <mxGeometry x="266.94" y="791" width="120" height="40" as="geometry" />
        </mxCell>
        <mxCell id="asSUr_-GE05iVPSnQASm-4" value="&lt;span style=&quot;font-weight: 700; text-wrap: nowrap;&quot;&gt;Carros_Status&lt;/span&gt;" style="rounded=1;whiteSpace=wrap;html=1;" vertex="1" parent="1">
          <mxGeometry x="107" y="180" width="120" height="40" as="geometry" />
        </mxCell>
        <mxCell id="asSUr_-GE05iVPSnQASm-5" style="edgeStyle=orthogonalEdgeStyle;rounded=0;orthogonalLoop=1;jettySize=auto;html=1;entryX=0.459;entryY=0.25;entryDx=0;entryDy=0;startArrow=ERzeroToOne;startFill=0;endArrow=ERmany;endFill=0;entryPerimeter=0;" edge="1" parent="1" source="asSUr_-GE05iVPSnQASm-6" target="asSUr_-GE05iVPSnQASm-8">
          <mxGeometry relative="1" as="geometry">
            <mxPoint x="346.94000000000005" y="330" as="targetPoint" />
          </mxGeometry>
        </mxCell>
        <mxCell id="asSUr_-GE05iVPSnQASm-6" value="&lt;span style=&quot;font-weight: 700; text-wrap: nowrap;&quot;&gt;Carros_Segmento&lt;/span&gt;" style="rounded=1;whiteSpace=wrap;html=1;" vertex="1" parent="1">
          <mxGeometry x="261.94" y="180" width="120" height="40" as="geometry" />
        </mxCell>
        <mxCell id="asSUr_-GE05iVPSnQASm-7" style="edgeStyle=orthogonalEdgeStyle;rounded=0;orthogonalLoop=1;jettySize=auto;html=1;entryX=0;entryY=0.5;entryDx=0;entryDy=0;startArrow=ERzeroToOne;startFill=0;endArrow=ERmany;endFill=0;" edge="1" parent="1" source="asSUr_-GE05iVPSnQASm-8" target="asSUr_-GE05iVPSnQASm-10">
          <mxGeometry relative="1" as="geometry" />
        </mxCell>
        <mxCell id="asSUr_-GE05iVPSnQASm-8" value="&lt;span style=&quot;font-weight: 700; text-wrap: nowrap;&quot;&gt;Carros&lt;/span&gt;" style="rounded=1;whiteSpace=wrap;html=1;" vertex="1" parent="1">
          <mxGeometry x="266.94" y="440" width="120" height="40" as="geometry" />
        </mxCell>
        <mxCell id="asSUr_-GE05iVPSnQASm-9" style="edgeStyle=orthogonalEdgeStyle;rounded=0;orthogonalLoop=1;jettySize=auto;html=1;endArrow=ERone;endFill=0;startArrow=ERmany;startFill=0;" edge="1" parent="1" source="asSUr_-GE05iVPSnQASm-10" target="asSUr_-GE05iVPSnQASm-11">
          <mxGeometry relative="1" as="geometry" />
        </mxCell>
        <mxCell id="asSUr_-GE05iVPSnQASm-10" value="&lt;span style=&quot;font-weight: 700; text-wrap: nowrap;&quot;&gt;Reservas&lt;/span&gt;" style="rounded=1;whiteSpace=wrap;html=1;" vertex="1" parent="1">
          <mxGeometry x="640" y="440" width="120" height="40" as="geometry" />
        </mxCell>
        <mxCell id="asSUr_-GE05iVPSnQASm-11" value="&lt;span style=&quot;font-weight: 700; text-wrap: nowrap;&quot;&gt;Reservas_Entrega&lt;/span&gt;" style="rounded=1;whiteSpace=wrap;html=1;" vertex="1" parent="1">
          <mxGeometry x="640" y="180" width="120" height="40" as="geometry" />
        </mxCell>
        <mxCell id="asSUr_-GE05iVPSnQASm-134" style="edgeStyle=orthogonalEdgeStyle;rounded=0;orthogonalLoop=1;jettySize=auto;html=1;entryX=1;entryY=0.5;entryDx=0;entryDy=0;endArrow=none;endFill=0;exitX=1;exitY=0.5;exitDx=0;exitDy=0;" edge="1" parent="1" source="asSUr_-GE05iVPSnQASm-12" target="asSUr_-GE05iVPSnQASm-33">
          <mxGeometry relative="1" as="geometry">
            <mxPoint x="1192.06" y="400.02" as="targetPoint" />
            <mxPoint x="1087" y="199.9855172413793" as="sourcePoint" />
            <Array as="points">
              <mxPoint x="1182.06" y="200" />
              <mxPoint x="1182.06" y="400" />
            </Array>
          </mxGeometry>
        </mxCell>
        <mxCell id="asSUr_-GE05iVPSnQASm-12" value="&lt;span style=&quot;font-weight: 700; text-wrap: nowrap;&quot;&gt;Clientes_Info&lt;/span&gt;" style="rounded=1;whiteSpace=wrap;html=1;" vertex="1" parent="1">
          <mxGeometry x="960" y="180" width="120" height="40" as="geometry" />
        </mxCell>
        <mxCell id="asSUr_-GE05iVPSnQASm-13" value="&lt;span style=&quot;font-weight: 700; text-wrap: nowrap;&quot;&gt;Clientes_Morada&lt;/span&gt;" style="rounded=1;whiteSpace=wrap;html=1;" vertex="1" parent="1">
          <mxGeometry x="1243" y="440" width="120" height="40" as="geometry" />
        </mxCell>
        <mxCell id="asSUr_-GE05iVPSnQASm-14" style="edgeStyle=orthogonalEdgeStyle;rounded=0;orthogonalLoop=1;jettySize=auto;html=1;entryX=0.5;entryY=1;entryDx=0;entryDy=0;startArrow=ERone;startFill=0;endArrow=ERone;endFill=0;" edge="1" parent="1" source="asSUr_-GE05iVPSnQASm-17" target="asSUr_-GE05iVPSnQASm-12">
          <mxGeometry relative="1" as="geometry" />
        </mxCell>
        <mxCell id="asSUr_-GE05iVPSnQASm-15" style="edgeStyle=orthogonalEdgeStyle;rounded=0;orthogonalLoop=1;jettySize=auto;html=1;entryX=0;entryY=0.5;entryDx=0;entryDy=0;startArrow=ERone;startFill=0;endArrow=ERmany;endFill=0;" edge="1" parent="1" source="asSUr_-GE05iVPSnQASm-17" target="asSUr_-GE05iVPSnQASm-13">
          <mxGeometry relative="1" as="geometry" />
        </mxCell>
        <mxCell id="asSUr_-GE05iVPSnQASm-16" value="" style="edgeStyle=orthogonalEdgeStyle;rounded=0;orthogonalLoop=1;jettySize=auto;html=1;endArrow=ERmany;endFill=0;startArrow=ERzeroToOne;startFill=0;exitX=0;exitY=0.5;exitDx=0;exitDy=0;" edge="1" parent="1" source="asSUr_-GE05iVPSnQASm-17">
          <mxGeometry relative="1" as="geometry">
            <Array as="points">
              <mxPoint x="815" y="460" />
            </Array>
            <mxPoint x="959.94" y="459.40999999999997" as="sourcePoint" />
            <mxPoint x="759.94" y="459.4100000000002" as="targetPoint" />
          </mxGeometry>
        </mxCell>
        <mxCell id="asSUr_-GE05iVPSnQASm-17" value="&lt;span style=&quot;font-weight: 700; text-wrap: nowrap;&quot;&gt;Clientes&lt;/span&gt;" style="rounded=1;whiteSpace=wrap;html=1;" vertex="1" parent="1">
          <mxGeometry x="960.94" y="440" width="120" height="40" as="geometry" />
        </mxCell>
        <mxCell id="asSUr_-GE05iVPSnQASm-18" style="edgeStyle=orthogonalEdgeStyle;rounded=0;orthogonalLoop=1;jettySize=auto;html=1;endArrow=ERzeroToOne;endFill=0;startArrow=ERmany;startFill=0;" edge="1" parent="1" source="asSUr_-GE05iVPSnQASm-19" target="asSUr_-GE05iVPSnQASm-24">
          <mxGeometry relative="1" as="geometry" />
        </mxCell>
        <mxCell id="asSUr_-GE05iVPSnQASm-19" value="&lt;span style=&quot;font-weight: 700; text-wrap: nowrap;&quot;&gt;Empregados_Departamento&lt;/span&gt;" style="rounded=1;whiteSpace=wrap;html=1;" vertex="1" parent="1">
          <mxGeometry x="600" y="1051" width="200" height="40" as="geometry" />
        </mxCell>
        <mxCell id="asSUr_-GE05iVPSnQASm-20" value="&lt;span style=&quot;font-weight: 700; text-wrap: nowrap;&quot;&gt;Empregados_Info&lt;/span&gt;" style="rounded=1;whiteSpace=wrap;html=1;" vertex="1" parent="1">
          <mxGeometry x="963.94" y="790" width="120" height="40" as="geometry" />
        </mxCell>
        <mxCell id="asSUr_-GE05iVPSnQASm-21" style="edgeStyle=orthogonalEdgeStyle;rounded=0;orthogonalLoop=1;jettySize=auto;html=1;startArrow=ERzeroToOne;startFill=0;endArrow=ERmany;endFill=0;" edge="1" parent="1" source="asSUr_-GE05iVPSnQASm-24" target="asSUr_-GE05iVPSnQASm-10">
          <mxGeometry relative="1" as="geometry" />
        </mxCell>
        <mxCell id="asSUr_-GE05iVPSnQASm-22" style="edgeStyle=orthogonalEdgeStyle;rounded=0;orthogonalLoop=1;jettySize=auto;html=1;startArrow=ERzeroToOne;startFill=0;endArrow=ERmany;endFill=0;" edge="1" parent="1" source="asSUr_-GE05iVPSnQASm-24" target="asSUr_-GE05iVPSnQASm-2">
          <mxGeometry relative="1" as="geometry" />
        </mxCell>
        <mxCell id="asSUr_-GE05iVPSnQASm-23" style="edgeStyle=orthogonalEdgeStyle;rounded=0;orthogonalLoop=1;jettySize=auto;html=1;entryX=0;entryY=0.5;entryDx=0;entryDy=0;startArrow=ERone;startFill=0;endArrow=ERone;endFill=0;" edge="1" parent="1" source="asSUr_-GE05iVPSnQASm-24" target="asSUr_-GE05iVPSnQASm-20">
          <mxGeometry relative="1" as="geometry" />
        </mxCell>
        <mxCell id="asSUr_-GE05iVPSnQASm-24" value="&lt;span style=&quot;font-weight: 700; text-wrap: nowrap;&quot;&gt;Empregados&lt;/span&gt;" style="rounded=1;whiteSpace=wrap;html=1;" vertex="1" parent="1">
          <mxGeometry x="640" y="790" width="120" height="40" as="geometry" />
        </mxCell>
        <mxCell id="asSUr_-GE05iVPSnQASm-25" value="&lt;b&gt;&lt;font style=&quot;font-size: 20px;&quot;&gt;Modelo de dados lógico&lt;/font&gt;&lt;/b&gt;&lt;div&gt;&lt;b&gt;&lt;font style=&quot;font-size: 20px;&quot;&gt;&amp;nbsp;Passeios – Serviços de Aluguer de Carros, Lda&lt;/font&gt;&lt;/b&gt;&lt;/div&gt;" style="rounded=0;whiteSpace=wrap;html=1;" vertex="1" parent="1">
          <mxGeometry x="579.94" width="560" height="80" as="geometry" />
        </mxCell>
        <mxCell id="asSUr_-GE05iVPSnQASm-29" value="" style="endArrow=ERmany;html=1;rounded=0;startArrow=ERzeroToOne;startFill=0;endFill=0;exitX=1;exitY=0.5;exitDx=0;exitDy=0;entryX=0;entryY=0.5;entryDx=0;entryDy=0;" edge="1" parent="1" source="asSUr_-GE05iVPSnQASm-4" target="asSUr_-GE05iVPSnQASm-8">
          <mxGeometry relative="1" as="geometry">
            <mxPoint x="222" y="459" as="sourcePoint" />
            <mxPoint x="272" y="436" as="targetPoint" />
            <Array as="points">
              <mxPoint x="252" y="200" />
              <mxPoint x="252" y="360" />
              <mxPoint x="252" y="430" />
              <mxPoint x="252" y="460" />
            </Array>
          </mxGeometry>
        </mxCell>
        <mxCell id="asSUr_-GE05iVPSnQASm-135" style="edgeStyle=orthogonalEdgeStyle;rounded=0;orthogonalLoop=1;jettySize=auto;html=1;endArrow=none;endFill=0;" edge="1" parent="1" source="asSUr_-GE05iVPSnQASm-30">
          <mxGeometry relative="1" as="geometry">
            <mxPoint x="1182.06" y="250.02" as="targetPoint" />
          </mxGeometry>
        </mxCell>
        <mxCell id="asSUr_-GE05iVPSnQASm-30" value="&lt;span style=&quot;font-weight: 700; text-align: left;&quot;&gt;ClienteId&lt;/span&gt;" style="ellipse;whiteSpace=wrap;html=1;align=center;fontStyle=4;" vertex="1" parent="1">
          <mxGeometry x="1042.06" y="230.02" width="120" height="40" as="geometry" />
        </mxCell>
        <mxCell id="asSUr_-GE05iVPSnQASm-136" style="edgeStyle=orthogonalEdgeStyle;rounded=0;orthogonalLoop=1;jettySize=auto;html=1;endArrow=none;endFill=0;" edge="1" parent="1" source="asSUr_-GE05iVPSnQASm-31">
          <mxGeometry relative="1" as="geometry">
            <mxPoint x="1182.06" y="300.02" as="targetPoint" />
          </mxGeometry>
        </mxCell>
        <mxCell id="asSUr_-GE05iVPSnQASm-31" value="&lt;span style=&quot;text-align: left;&quot;&gt;Data_nascimento&lt;/span&gt;" style="ellipse;whiteSpace=wrap;html=1;align=center;" vertex="1" parent="1">
          <mxGeometry x="1042.06" y="280.02" width="120" height="40" as="geometry" />
        </mxCell>
        <mxCell id="asSUr_-GE05iVPSnQASm-137" style="edgeStyle=orthogonalEdgeStyle;rounded=0;orthogonalLoop=1;jettySize=auto;html=1;endArrow=none;endFill=0;" edge="1" parent="1" source="asSUr_-GE05iVPSnQASm-32">
          <mxGeometry relative="1" as="geometry">
            <mxPoint x="1182.06" y="350.02" as="targetPoint" />
          </mxGeometry>
        </mxCell>
        <mxCell id="asSUr_-GE05iVPSnQASm-32" value="&lt;span style=&quot;text-align: left;&quot;&gt;Email&lt;/span&gt;" style="ellipse;whiteSpace=wrap;html=1;align=center;" vertex="1" parent="1">
          <mxGeometry x="1042.06" y="330.02" width="120" height="40" as="geometry" />
        </mxCell>
        <mxCell id="asSUr_-GE05iVPSnQASm-33" value="&lt;span style=&quot;text-align: left;&quot;&gt;Telefone&lt;/span&gt;" style="ellipse;whiteSpace=wrap;html=1;align=center;" vertex="1" parent="1">
          <mxGeometry x="1042.06" y="380.02" width="120" height="40" as="geometry" />
        </mxCell>
        <mxCell id="asSUr_-GE05iVPSnQASm-34" value="&lt;span style=&quot;font-weight: 700; text-align: left;&quot;&gt;ClienteId&lt;/span&gt;" style="ellipse;whiteSpace=wrap;html=1;align=center;fontStyle=4;" vertex="1" parent="1">
          <mxGeometry x="886" y="500" width="120" height="40" as="geometry" />
        </mxCell>
        <mxCell id="asSUr_-GE05iVPSnQASm-35" value="&lt;span style=&quot;text-align: left;&quot;&gt;Nome&lt;/span&gt;" style="ellipse;whiteSpace=wrap;html=1;align=center;" vertex="1" parent="1">
          <mxGeometry x="886" y="550" width="120" height="40" as="geometry" />
        </mxCell>
        <mxCell id="asSUr_-GE05iVPSnQASm-36" value="&lt;span style=&quot;text-align: left;&quot;&gt;Apelido&lt;/span&gt;" style="ellipse;whiteSpace=wrap;html=1;align=center;" vertex="1" parent="1">
          <mxGeometry x="886" y="600" width="120" height="40" as="geometry" />
        </mxCell>
        <mxCell id="asSUr_-GE05iVPSnQASm-37" value="&lt;span style=&quot;text-align: left;&quot;&gt;NIF&lt;/span&gt;" style="ellipse;whiteSpace=wrap;html=1;align=center;" vertex="1" parent="1">
          <mxGeometry x="1036" y="600" width="120" height="40" as="geometry" />
        </mxCell>
        <mxCell id="asSUr_-GE05iVPSnQASm-38" value="&lt;span style=&quot;text-align: left;&quot;&gt;Carta&lt;/span&gt;" style="ellipse;whiteSpace=wrap;html=1;align=center;" vertex="1" parent="1">
          <mxGeometry x="1036" y="550" width="120" height="40" as="geometry" />
        </mxCell>
        <mxCell id="asSUr_-GE05iVPSnQASm-39" value="&lt;span style=&quot;text-align: left;&quot;&gt;Data_adesao&lt;/span&gt;" style="ellipse;whiteSpace=wrap;html=1;align=center;" vertex="1" parent="1">
          <mxGeometry x="1036" y="500" width="120" height="40" as="geometry" />
        </mxCell>
        <mxCell id="asSUr_-GE05iVPSnQASm-45" value="&lt;span style=&quot;font-weight: 700; text-align: left;&quot;&gt;ClienteId&lt;/span&gt;" style="ellipse;whiteSpace=wrap;html=1;align=center;fontStyle=4;" vertex="1" parent="1">
          <mxGeometry x="1173" y="500" width="120" height="40" as="geometry" />
        </mxCell>
        <mxCell id="asSUr_-GE05iVPSnQASm-46" value="&lt;span style=&quot;text-align: left;&quot;&gt;Rua&lt;/span&gt;" style="ellipse;whiteSpace=wrap;html=1;align=center;" vertex="1" parent="1">
          <mxGeometry x="1173" y="550" width="120" height="40" as="geometry" />
        </mxCell>
        <mxCell id="asSUr_-GE05iVPSnQASm-47" value="&lt;span style=&quot;text-align: left;&quot;&gt;&amp;nbsp;Número&lt;/span&gt;" style="ellipse;whiteSpace=wrap;html=1;align=center;" vertex="1" parent="1">
          <mxGeometry x="1323" y="500" width="120" height="40" as="geometry" />
        </mxCell>
        <mxCell id="asSUr_-GE05iVPSnQASm-48" value="&lt;span style=&quot;text-align: left;&quot;&gt;Andar&lt;/span&gt;" style="ellipse;whiteSpace=wrap;html=1;align=center;" vertex="1" parent="1">
          <mxGeometry x="1173" y="600" width="120" height="40" as="geometry" />
        </mxCell>
        <mxCell id="asSUr_-GE05iVPSnQASm-49" value="&lt;span style=&quot;text-align: left;&quot;&gt;Codigo_postal&lt;/span&gt;" style="ellipse;whiteSpace=wrap;html=1;align=center;" vertex="1" parent="1">
          <mxGeometry x="1323" y="550" width="120" height="40" as="geometry" />
        </mxCell>
        <mxCell id="asSUr_-GE05iVPSnQASm-50" value="&lt;span style=&quot;text-align: left;&quot;&gt;Cidade&lt;/span&gt;" style="ellipse;whiteSpace=wrap;html=1;align=center;" vertex="1" parent="1">
          <mxGeometry x="1323" y="600" width="120" height="40" as="geometry" />
        </mxCell>
        <mxCell id="asSUr_-GE05iVPSnQASm-51" value="&lt;span style=&quot;text-align: left;&quot;&gt;&amp;nbsp;País&lt;/span&gt;" style="ellipse;whiteSpace=wrap;html=1;align=center;" vertex="1" parent="1">
          <mxGeometry x="1323" y="650" width="120" height="40" as="geometry" />
        </mxCell>
        <mxCell id="asSUr_-GE05iVPSnQASm-103" style="edgeStyle=orthogonalEdgeStyle;rounded=0;orthogonalLoop=1;jettySize=auto;html=1;endArrow=none;endFill=0;" edge="1" parent="1" source="asSUr_-GE05iVPSnQASm-52">
          <mxGeometry relative="1" as="geometry">
            <mxPoint x="850" y="870" as="targetPoint" />
          </mxGeometry>
        </mxCell>
        <mxCell id="asSUr_-GE05iVPSnQASm-52" value="&lt;span style=&quot;font-weight: 700; text-align: left;&quot;&gt;EmpId&lt;/span&gt;" style="ellipse;whiteSpace=wrap;html=1;align=center;fontStyle=4;" vertex="1" parent="1">
          <mxGeometry x="710" y="850" width="120" height="40" as="geometry" />
        </mxCell>
        <mxCell id="asSUr_-GE05iVPSnQASm-104" style="edgeStyle=orthogonalEdgeStyle;rounded=0;orthogonalLoop=1;jettySize=auto;html=1;endArrow=none;endFill=0;" edge="1" parent="1" source="asSUr_-GE05iVPSnQASm-53">
          <mxGeometry relative="1" as="geometry">
            <mxPoint x="850" y="920" as="targetPoint" />
          </mxGeometry>
        </mxCell>
        <mxCell id="asSUr_-GE05iVPSnQASm-53" value="&lt;span style=&quot;text-align: left;&quot;&gt;Nome&lt;/span&gt;" style="ellipse;whiteSpace=wrap;html=1;align=center;" vertex="1" parent="1">
          <mxGeometry x="710" y="900" width="120" height="40" as="geometry" />
        </mxCell>
        <mxCell id="asSUr_-GE05iVPSnQASm-105" style="edgeStyle=orthogonalEdgeStyle;rounded=0;orthogonalLoop=1;jettySize=auto;html=1;endArrow=none;endFill=0;" edge="1" parent="1" source="asSUr_-GE05iVPSnQASm-54">
          <mxGeometry relative="1" as="geometry">
            <mxPoint x="850" y="970" as="targetPoint" />
          </mxGeometry>
        </mxCell>
        <mxCell id="asSUr_-GE05iVPSnQASm-54" value="&lt;span style=&quot;text-align: left;&quot;&gt;Apelido&lt;/span&gt;" style="ellipse;whiteSpace=wrap;html=1;align=center;" vertex="1" parent="1">
          <mxGeometry x="710" y="950" width="120" height="40" as="geometry" />
        </mxCell>
        <mxCell id="asSUr_-GE05iVPSnQASm-55" value="&lt;span style=&quot;text-align: left;&quot;&gt;&amp;nbsp;EmailEmp&lt;/span&gt;" style="ellipse;whiteSpace=wrap;html=1;align=center;" vertex="1" parent="1">
          <mxGeometry x="710" y="1000" width="120" height="40" as="geometry" />
        </mxCell>
        <mxCell id="asSUr_-GE05iVPSnQASm-58" value="&lt;span style=&quot;font-weight: 700; text-align: left;&quot;&gt;EmpId&lt;/span&gt;" style="ellipse;whiteSpace=wrap;html=1;align=center;fontStyle=4;" vertex="1" parent="1">
          <mxGeometry x="890" y="850" width="120" height="40" as="geometry" />
        </mxCell>
        <mxCell id="asSUr_-GE05iVPSnQASm-59" value="&lt;span style=&quot;text-align: left;&quot;&gt;NIF&lt;/span&gt;" style="ellipse;whiteSpace=wrap;html=1;align=center;" vertex="1" parent="1">
          <mxGeometry x="890" y="900" width="120" height="40" as="geometry" />
        </mxCell>
        <mxCell id="asSUr_-GE05iVPSnQASm-60" value="&lt;span style=&quot;text-align: left;&quot;&gt;Vencimento&lt;/span&gt;" style="ellipse;whiteSpace=wrap;html=1;align=center;" vertex="1" parent="1">
          <mxGeometry x="890" y="950" width="120" height="40" as="geometry" />
        </mxCell>
        <mxCell id="asSUr_-GE05iVPSnQASm-61" value="&lt;span style=&quot;text-align: left;&quot;&gt;Telefone&lt;/span&gt;" style="ellipse;whiteSpace=wrap;html=1;align=center;" vertex="1" parent="1">
          <mxGeometry x="890" y="1000" width="120" height="40" as="geometry" />
        </mxCell>
        <mxCell id="asSUr_-GE05iVPSnQASm-62" value="&lt;span style=&quot;text-align: left;&quot;&gt;Data_inicio&lt;/span&gt;" style="ellipse;whiteSpace=wrap;html=1;align=center;" vertex="1" parent="1">
          <mxGeometry x="1040" y="850" width="120" height="40" as="geometry" />
        </mxCell>
        <mxCell id="asSUr_-GE05iVPSnQASm-63" value="&lt;span style=&quot;text-align: left;&quot;&gt;Contacto_emergencia&lt;/span&gt;" style="ellipse;whiteSpace=wrap;html=1;align=center;" vertex="1" parent="1">
          <mxGeometry x="1040" y="900" width="120" height="40" as="geometry" />
        </mxCell>
        <mxCell id="asSUr_-GE05iVPSnQASm-64" value="&lt;span style=&quot;text-align: left;&quot;&gt;Nome_cont_emerg&lt;/span&gt;" style="ellipse;whiteSpace=wrap;html=1;align=center;" vertex="1" parent="1">
          <mxGeometry x="1040" y="950" width="120" height="40" as="geometry" />
        </mxCell>
        <mxCell id="asSUr_-GE05iVPSnQASm-65" value="&lt;span style=&quot;text-align: left;&quot;&gt;Apelido_cont_emerg&lt;/span&gt;" style="ellipse;whiteSpace=wrap;html=1;align=center;" vertex="1" parent="1">
          <mxGeometry x="1040" y="1000" width="120" height="40" as="geometry" />
        </mxCell>
        <mxCell id="asSUr_-GE05iVPSnQASm-66" value="&lt;span style=&quot;font-weight: 700; text-align: left;&quot;&gt;DepId&lt;/span&gt;" style="ellipse;whiteSpace=wrap;html=1;align=center;fontStyle=4;" vertex="1" parent="1">
          <mxGeometry x="570.02" y="940" width="120" height="40" as="geometry" />
        </mxCell>
        <mxCell id="asSUr_-GE05iVPSnQASm-148" style="edgeStyle=orthogonalEdgeStyle;rounded=0;orthogonalLoop=1;jettySize=auto;html=1;endArrow=none;endFill=0;" edge="1" parent="1" source="asSUr_-GE05iVPSnQASm-67">
          <mxGeometry relative="1" as="geometry">
            <mxPoint x="550.0199999999998" y="1010" as="targetPoint" />
          </mxGeometry>
        </mxCell>
        <mxCell id="asSUr_-GE05iVPSnQASm-67" value="&lt;span style=&quot;text-align: left;&quot;&gt;Nome&lt;/span&gt;" style="ellipse;whiteSpace=wrap;html=1;align=center;" vertex="1" parent="1">
          <mxGeometry x="570.02" y="990" width="120" height="40" as="geometry" />
        </mxCell>
        <mxCell id="asSUr_-GE05iVPSnQASm-76" value="" style="endArrow=none;html=1;rounded=0;" edge="1" parent="1">
          <mxGeometry relative="1" as="geometry">
            <mxPoint x="1006" y="520" as="sourcePoint" />
            <mxPoint x="1036" y="520" as="targetPoint" />
            <Array as="points">
              <mxPoint x="1006" y="520" />
            </Array>
          </mxGeometry>
        </mxCell>
        <mxCell id="asSUr_-GE05iVPSnQASm-77" value="" style="endArrow=none;html=1;rounded=0;" edge="1" parent="1">
          <mxGeometry relative="1" as="geometry">
            <mxPoint x="1005.94" y="569.74" as="sourcePoint" />
            <mxPoint x="1035.94" y="569.74" as="targetPoint" />
            <Array as="points">
              <mxPoint x="1005.94" y="569.74" />
            </Array>
          </mxGeometry>
        </mxCell>
        <mxCell id="asSUr_-GE05iVPSnQASm-78" value="" style="endArrow=none;html=1;rounded=0;" edge="1" parent="1">
          <mxGeometry relative="1" as="geometry">
            <mxPoint x="1005.94" y="619.74" as="sourcePoint" />
            <mxPoint x="1035.94" y="619.74" as="targetPoint" />
            <Array as="points">
              <mxPoint x="1005.94" y="619.74" />
            </Array>
          </mxGeometry>
        </mxCell>
        <mxCell id="asSUr_-GE05iVPSnQASm-79" value="" style="endArrow=none;html=1;rounded=0;" edge="1" parent="1">
          <mxGeometry relative="1" as="geometry">
            <mxPoint x="1021" y="620" as="sourcePoint" />
            <mxPoint x="1020.6800000000001" y="480" as="targetPoint" />
          </mxGeometry>
        </mxCell>
        <mxCell id="asSUr_-GE05iVPSnQASm-80" value="" style="endArrow=none;html=1;rounded=0;" edge="1" parent="1">
          <mxGeometry relative="1" as="geometry">
            <mxPoint x="1293.06" y="520" as="sourcePoint" />
            <mxPoint x="1323.06" y="520" as="targetPoint" />
            <Array as="points">
              <mxPoint x="1293.06" y="520" />
            </Array>
          </mxGeometry>
        </mxCell>
        <mxCell id="asSUr_-GE05iVPSnQASm-81" value="" style="endArrow=none;html=1;rounded=0;" edge="1" parent="1">
          <mxGeometry relative="1" as="geometry">
            <mxPoint x="1293" y="569.74" as="sourcePoint" />
            <mxPoint x="1323" y="569.74" as="targetPoint" />
            <Array as="points">
              <mxPoint x="1293" y="569.74" />
            </Array>
          </mxGeometry>
        </mxCell>
        <mxCell id="asSUr_-GE05iVPSnQASm-82" value="" style="endArrow=none;html=1;rounded=0;" edge="1" parent="1">
          <mxGeometry relative="1" as="geometry">
            <mxPoint x="1293" y="619.74" as="sourcePoint" />
            <mxPoint x="1323" y="619.74" as="targetPoint" />
            <Array as="points">
              <mxPoint x="1293" y="619.74" />
            </Array>
          </mxGeometry>
        </mxCell>
        <mxCell id="asSUr_-GE05iVPSnQASm-83" value="" style="endArrow=none;html=1;rounded=0;exitX=0;exitY=0.5;exitDx=0;exitDy=0;" edge="1" parent="1" source="asSUr_-GE05iVPSnQASm-51">
          <mxGeometry relative="1" as="geometry">
            <mxPoint x="1308" y="660" as="sourcePoint" />
            <mxPoint x="1307.74" y="480" as="targetPoint" />
            <Array as="points">
              <mxPoint x="1308" y="670" />
            </Array>
          </mxGeometry>
        </mxCell>
        <mxCell id="asSUr_-GE05iVPSnQASm-96" value="" style="endArrow=none;html=1;rounded=0;" edge="1" parent="1">
          <mxGeometry relative="1" as="geometry">
            <mxPoint x="1008.97" y="870" as="sourcePoint" />
            <mxPoint x="1038.97" y="870" as="targetPoint" />
            <Array as="points">
              <mxPoint x="1008.97" y="870" />
            </Array>
          </mxGeometry>
        </mxCell>
        <mxCell id="asSUr_-GE05iVPSnQASm-97" value="" style="endArrow=none;html=1;rounded=0;" edge="1" parent="1">
          <mxGeometry relative="1" as="geometry">
            <mxPoint x="1008.9100000000001" y="919.74" as="sourcePoint" />
            <mxPoint x="1038.91" y="919.74" as="targetPoint" />
            <Array as="points">
              <mxPoint x="1008.9100000000001" y="919.74" />
            </Array>
          </mxGeometry>
        </mxCell>
        <mxCell id="asSUr_-GE05iVPSnQASm-98" value="" style="endArrow=none;html=1;rounded=0;" edge="1" parent="1">
          <mxGeometry relative="1" as="geometry">
            <mxPoint x="1008.9100000000001" y="969.74" as="sourcePoint" />
            <mxPoint x="1038.91" y="969.74" as="targetPoint" />
            <Array as="points">
              <mxPoint x="1008.9100000000001" y="969.74" />
            </Array>
          </mxGeometry>
        </mxCell>
        <mxCell id="asSUr_-GE05iVPSnQASm-99" value="" style="endArrow=none;html=1;rounded=0;" edge="1" parent="1">
          <mxGeometry relative="1" as="geometry">
            <mxPoint x="1024" y="1020" as="sourcePoint" />
            <mxPoint x="1023.6500000000001" y="830" as="targetPoint" />
          </mxGeometry>
        </mxCell>
        <mxCell id="asSUr_-GE05iVPSnQASm-101" value="" style="endArrow=none;html=1;rounded=0;" edge="1" parent="1">
          <mxGeometry relative="1" as="geometry">
            <mxPoint x="1008.94" y="1019.66" as="sourcePoint" />
            <mxPoint x="1038.94" y="1019.66" as="targetPoint" />
            <Array as="points">
              <mxPoint x="1008.94" y="1019.66" />
            </Array>
          </mxGeometry>
        </mxCell>
        <mxCell id="asSUr_-GE05iVPSnQASm-102" value="" style="endArrow=none;html=1;rounded=0;" edge="1" parent="1">
          <mxGeometry relative="1" as="geometry">
            <mxPoint x="760" y="830" as="sourcePoint" />
            <mxPoint x="850" y="1020" as="targetPoint" />
            <Array as="points">
              <mxPoint x="850" y="830" />
            </Array>
          </mxGeometry>
        </mxCell>
        <mxCell id="asSUr_-GE05iVPSnQASm-106" style="edgeStyle=orthogonalEdgeStyle;rounded=0;orthogonalLoop=1;jettySize=auto;html=1;endArrow=none;endFill=0;" edge="1" parent="1">
          <mxGeometry relative="1" as="geometry">
            <mxPoint x="850" y="1019" as="targetPoint" />
            <mxPoint x="830" y="1019" as="sourcePoint" />
            <Array as="points">
              <mxPoint x="830" y="1020" />
              <mxPoint x="850" y="1020" />
            </Array>
          </mxGeometry>
        </mxCell>
        <mxCell id="asSUr_-GE05iVPSnQASm-196" style="edgeStyle=orthogonalEdgeStyle;rounded=0;orthogonalLoop=1;jettySize=auto;html=1;endArrow=none;endFill=0;" edge="1" parent="1" source="asSUr_-GE05iVPSnQASm-111">
          <mxGeometry relative="1" as="geometry">
            <mxPoint x="460" y="250" as="targetPoint" />
            <Array as="points">
              <mxPoint x="460" y="250" />
              <mxPoint x="460" y="250" />
            </Array>
          </mxGeometry>
        </mxCell>
        <mxCell id="asSUr_-GE05iVPSnQASm-111" value="&lt;div style=&quot;text-align: left;&quot;&gt;&lt;b&gt;SegmentoId&lt;/b&gt;&lt;/div&gt;" style="ellipse;whiteSpace=wrap;html=1;align=center;fontStyle=4;" vertex="1" parent="1">
          <mxGeometry x="334" y="230" width="120" height="40" as="geometry" />
        </mxCell>
        <mxCell id="asSUr_-GE05iVPSnQASm-112" value="&lt;span style=&quot;text-align: left;&quot;&gt;Nome&lt;/span&gt;" style="ellipse;whiteSpace=wrap;html=1;align=center;" vertex="1" parent="1">
          <mxGeometry x="334" y="280" width="120" height="40" as="geometry" />
        </mxCell>
        <mxCell id="asSUr_-GE05iVPSnQASm-118" value="" style="endArrow=none;html=1;rounded=0;exitX=1;exitY=0.5;exitDx=0;exitDy=0;entryX=1;entryY=0.5;entryDx=0;entryDy=0;" edge="1" parent="1" source="asSUr_-GE05iVPSnQASm-6" target="asSUr_-GE05iVPSnQASm-112">
          <mxGeometry relative="1" as="geometry">
            <mxPoint x="390" y="200" as="sourcePoint" />
            <mxPoint x="480" y="300" as="targetPoint" />
            <Array as="points">
              <mxPoint x="460" y="200" />
              <mxPoint x="460" y="250" />
              <mxPoint x="460" y="300" />
            </Array>
          </mxGeometry>
        </mxCell>
        <mxCell id="asSUr_-GE05iVPSnQASm-121" style="edgeStyle=orthogonalEdgeStyle;rounded=0;orthogonalLoop=1;jettySize=auto;html=1;endArrow=none;endFill=0;" edge="1" parent="1" source="asSUr_-GE05iVPSnQASm-122">
          <mxGeometry relative="1" as="geometry">
            <mxPoint x="97" y="250" as="targetPoint" />
            <Array as="points">
              <mxPoint x="97" y="250" />
            </Array>
          </mxGeometry>
        </mxCell>
        <mxCell id="asSUr_-GE05iVPSnQASm-122" value="&lt;div style=&quot;text-align: left;&quot;&gt;&lt;b&gt;StatusId&lt;/b&gt;&lt;/div&gt;" style="ellipse;whiteSpace=wrap;html=1;align=center;fontStyle=4;" vertex="1" parent="1">
          <mxGeometry x="107" y="230" width="120" height="40" as="geometry" />
        </mxCell>
        <mxCell id="asSUr_-GE05iVPSnQASm-123" style="edgeStyle=orthogonalEdgeStyle;rounded=0;orthogonalLoop=1;jettySize=auto;html=1;endArrow=none;endFill=0;" edge="1" parent="1" source="asSUr_-GE05iVPSnQASm-124">
          <mxGeometry relative="1" as="geometry">
            <mxPoint x="97" y="300" as="targetPoint" />
            <Array as="points">
              <mxPoint x="97" y="300" />
            </Array>
          </mxGeometry>
        </mxCell>
        <mxCell id="asSUr_-GE05iVPSnQASm-124" value="&lt;span style=&quot;text-align: left;&quot;&gt;Nome&lt;/span&gt;" style="ellipse;whiteSpace=wrap;html=1;align=center;" vertex="1" parent="1">
          <mxGeometry x="107" y="280" width="120" height="40" as="geometry" />
        </mxCell>
        <mxCell id="asSUr_-GE05iVPSnQASm-125" value="" style="endArrow=none;html=1;rounded=0;" edge="1" parent="1">
          <mxGeometry relative="1" as="geometry">
            <mxPoint x="107" y="200" as="sourcePoint" />
            <mxPoint x="97" y="300" as="targetPoint" />
            <Array as="points">
              <mxPoint x="97" y="200" />
              <mxPoint x="97" y="220" />
            </Array>
          </mxGeometry>
        </mxCell>
        <mxCell id="asSUr_-GE05iVPSnQASm-126" value="&lt;div style=&quot;text-align: left;&quot;&gt;&lt;b&gt;SegmentoId&lt;/b&gt;&lt;/div&gt;" style="ellipse;whiteSpace=wrap;html=1;align=center;fontStyle=4;" vertex="1" parent="1">
          <mxGeometry x="710" y="230.02" width="120" height="40" as="geometry" />
        </mxCell>
        <mxCell id="asSUr_-GE05iVPSnQASm-132" style="edgeStyle=orthogonalEdgeStyle;rounded=0;orthogonalLoop=1;jettySize=auto;html=1;endArrow=none;endFill=0;" edge="1" parent="1">
          <mxGeometry relative="1" as="geometry">
            <mxPoint x="850" y="300.02" as="targetPoint" />
            <mxPoint x="830" y="300.0200000000002" as="sourcePoint" />
          </mxGeometry>
        </mxCell>
        <mxCell id="asSUr_-GE05iVPSnQASm-127" value="&lt;span style=&quot;text-align: left;&quot;&gt;ReservaId&lt;/span&gt;" style="ellipse;whiteSpace=wrap;html=1;align=center;" vertex="1" parent="1">
          <mxGeometry x="710" y="280.02" width="120" height="40" as="geometry" />
        </mxCell>
        <mxCell id="asSUr_-GE05iVPSnQASm-128" value="&lt;span style=&quot;text-align: left;&quot;&gt;KM_finais&lt;/span&gt;" style="ellipse;whiteSpace=wrap;html=1;align=center;" vertex="1" parent="1">
          <mxGeometry x="710" y="330.02" width="120" height="40" as="geometry" />
        </mxCell>
        <mxCell id="asSUr_-GE05iVPSnQASm-131" value="" style="endArrow=none;html=1;rounded=0;entryX=1;entryY=0.5;entryDx=0;entryDy=0;" edge="1" parent="1">
          <mxGeometry relative="1" as="geometry">
            <mxPoint x="830" y="249.73000000000005" as="sourcePoint" />
            <mxPoint x="829.9999999999914" y="350.01999999999975" as="targetPoint" />
            <Array as="points">
              <mxPoint x="850" y="250.02" />
              <mxPoint x="850" y="300.02" />
              <mxPoint x="850" y="350.02" />
            </Array>
          </mxGeometry>
        </mxCell>
        <mxCell id="asSUr_-GE05iVPSnQASm-133" value="" style="endArrow=none;html=1;rounded=0;" edge="1" parent="1">
          <mxGeometry relative="1" as="geometry">
            <mxPoint x="760" y="199.73000000000002" as="sourcePoint" />
            <mxPoint x="850" y="250.02" as="targetPoint" />
            <Array as="points">
              <mxPoint x="850" y="200.02" />
            </Array>
          </mxGeometry>
        </mxCell>
        <mxCell id="asSUr_-GE05iVPSnQASm-151" style="edgeStyle=orthogonalEdgeStyle;rounded=0;orthogonalLoop=1;jettySize=auto;html=1;entryX=0;entryY=0.5;entryDx=0;entryDy=0;endArrow=none;endFill=0;" edge="1" parent="1" source="asSUr_-GE05iVPSnQASm-138" target="asSUr_-GE05iVPSnQASm-141">
          <mxGeometry relative="1" as="geometry" />
        </mxCell>
        <mxCell id="asSUr_-GE05iVPSnQASm-138" value="&lt;div style=&quot;text-align: left;&quot;&gt;ReservaId&lt;br&gt;&lt;/div&gt;" style="ellipse;whiteSpace=wrap;html=1;align=center;fontStyle=4;" vertex="1" parent="1">
          <mxGeometry x="420" y="500" width="120" height="40" as="geometry" />
        </mxCell>
        <mxCell id="asSUr_-GE05iVPSnQASm-152" style="edgeStyle=orthogonalEdgeStyle;rounded=0;orthogonalLoop=1;jettySize=auto;html=1;entryX=0;entryY=0.5;entryDx=0;entryDy=0;endArrow=none;endFill=0;" edge="1" parent="1" source="asSUr_-GE05iVPSnQASm-139" target="asSUr_-GE05iVPSnQASm-142">
          <mxGeometry relative="1" as="geometry" />
        </mxCell>
        <mxCell id="asSUr_-GE05iVPSnQASm-139" value="&lt;span style=&quot;text-align: left;&quot;&gt;Data_inicio&lt;/span&gt;" style="ellipse;whiteSpace=wrap;html=1;align=center;" vertex="1" parent="1">
          <mxGeometry x="420" y="550" width="120" height="40" as="geometry" />
        </mxCell>
        <mxCell id="asSUr_-GE05iVPSnQASm-155" style="edgeStyle=orthogonalEdgeStyle;rounded=0;orthogonalLoop=1;jettySize=auto;html=1;entryX=0;entryY=0.5;entryDx=0;entryDy=0;endArrow=none;endFill=0;" edge="1" parent="1" source="asSUr_-GE05iVPSnQASm-140" target="asSUr_-GE05iVPSnQASm-143">
          <mxGeometry relative="1" as="geometry" />
        </mxCell>
        <mxCell id="asSUr_-GE05iVPSnQASm-140" value="&lt;span style=&quot;text-align: left;&quot;&gt;Data_fim&lt;/span&gt;" style="ellipse;whiteSpace=wrap;html=1;align=center;" vertex="1" parent="1">
          <mxGeometry x="420" y="600" width="120" height="40" as="geometry" />
        </mxCell>
        <mxCell id="asSUr_-GE05iVPSnQASm-141" value="&lt;span style=&quot;text-align: left;&quot;&gt;ClienteID&lt;/span&gt;" style="ellipse;whiteSpace=wrap;html=1;align=center;" vertex="1" parent="1">
          <mxGeometry x="560" y="500" width="120" height="40" as="geometry" />
        </mxCell>
        <mxCell id="asSUr_-GE05iVPSnQASm-142" value="&lt;span style=&quot;text-align: left;&quot;&gt;CarId&lt;/span&gt;" style="ellipse;whiteSpace=wrap;html=1;align=center;" vertex="1" parent="1">
          <mxGeometry x="560" y="550" width="120" height="40" as="geometry" />
        </mxCell>
        <mxCell id="asSUr_-GE05iVPSnQASm-143" value="&lt;span style=&quot;text-align: left;&quot;&gt;EmpId&lt;/span&gt;" style="ellipse;whiteSpace=wrap;html=1;align=center;" vertex="1" parent="1">
          <mxGeometry x="560" y="600" width="120" height="40" as="geometry" />
        </mxCell>
        <mxCell id="asSUr_-GE05iVPSnQASm-144" value="Valor" style="ellipse;whiteSpace=wrap;html=1;align=center;dashed=1;" vertex="1" parent="1">
          <mxGeometry x="560" y="650" width="120" height="40" as="geometry" />
        </mxCell>
        <mxCell id="asSUr_-GE05iVPSnQASm-156" style="edgeStyle=orthogonalEdgeStyle;rounded=0;orthogonalLoop=1;jettySize=auto;html=1;entryX=0;entryY=0.5;entryDx=0;entryDy=0;endArrow=none;endFill=0;" edge="1" parent="1" source="asSUr_-GE05iVPSnQASm-145" target="asSUr_-GE05iVPSnQASm-144">
          <mxGeometry relative="1" as="geometry" />
        </mxCell>
        <mxCell id="asSUr_-GE05iVPSnQASm-145" value="&lt;span style=&quot;text-align: left;&quot;&gt;Data_pagamentro&lt;/span&gt;" style="ellipse;whiteSpace=wrap;html=1;align=center;" vertex="1" parent="1">
          <mxGeometry x="420" y="650" width="120" height="40" as="geometry" />
        </mxCell>
        <mxCell id="asSUr_-GE05iVPSnQASm-146" value="&lt;span style=&quot;text-align: left;&quot;&gt;Pagamentro&lt;/span&gt;" style="ellipse;whiteSpace=wrap;html=1;align=center;" vertex="1" parent="1">
          <mxGeometry x="420" y="700" width="120" height="40" as="geometry" />
        </mxCell>
        <mxCell id="asSUr_-GE05iVPSnQASm-147" value="" style="endArrow=none;html=1;rounded=0;exitX=0;exitY=0.5;exitDx=0;exitDy=0;" edge="1" parent="1" source="asSUr_-GE05iVPSnQASm-66">
          <mxGeometry relative="1" as="geometry">
            <mxPoint x="450.02" y="1070.41" as="sourcePoint" />
            <mxPoint x="600" y="1070" as="targetPoint" />
            <Array as="points">
              <mxPoint x="550.02" y="961" />
              <mxPoint x="550.02" y="1071" />
            </Array>
          </mxGeometry>
        </mxCell>
        <mxCell id="asSUr_-GE05iVPSnQASm-150" value="" style="endArrow=none;html=1;rounded=0;exitX=1;exitY=0.5;exitDx=0;exitDy=0;" edge="1" parent="1" source="asSUr_-GE05iVPSnQASm-146">
          <mxGeometry relative="1" as="geometry">
            <mxPoint x="550" y="720" as="sourcePoint" />
            <mxPoint x="640" y="479.16999999999996" as="targetPoint" />
            <Array as="points">
              <mxPoint x="550" y="720" />
              <mxPoint x="550" y="479" />
            </Array>
          </mxGeometry>
        </mxCell>
        <mxCell id="asSUr_-GE05iVPSnQASm-175" style="edgeStyle=orthogonalEdgeStyle;rounded=0;orthogonalLoop=1;jettySize=auto;html=1;entryX=0;entryY=0.5;entryDx=0;entryDy=0;endArrow=none;endFill=0;" edge="1" parent="1" source="asSUr_-GE05iVPSnQASm-158" target="asSUr_-GE05iVPSnQASm-162">
          <mxGeometry relative="1" as="geometry" />
        </mxCell>
        <mxCell id="asSUr_-GE05iVPSnQASm-158" value="&lt;span style=&quot;text-align: left;&quot;&gt;CarId&lt;/span&gt;" style="ellipse;whiteSpace=wrap;html=1;align=center;" vertex="1" parent="1">
          <mxGeometry x="185.67" y="900" width="120" height="40" as="geometry" />
        </mxCell>
        <mxCell id="asSUr_-GE05iVPSnQASm-177" style="edgeStyle=orthogonalEdgeStyle;rounded=0;orthogonalLoop=1;jettySize=auto;html=1;entryX=0;entryY=0.5;entryDx=0;entryDy=0;endArrow=none;endFill=0;" edge="1" parent="1" source="asSUr_-GE05iVPSnQASm-159" target="asSUr_-GE05iVPSnQASm-163">
          <mxGeometry relative="1" as="geometry" />
        </mxCell>
        <mxCell id="asSUr_-GE05iVPSnQASm-159" value="&lt;span style=&quot;text-align: left;&quot;&gt;EmpId&lt;/span&gt;" style="ellipse;whiteSpace=wrap;html=1;align=center;" vertex="1" parent="1">
          <mxGeometry x="185.67" y="950" width="120" height="40" as="geometry" />
        </mxCell>
        <mxCell id="asSUr_-GE05iVPSnQASm-160" value="&lt;span style=&quot;text-align: left;&quot;&gt;Data_inicio&lt;/span&gt;" style="ellipse;whiteSpace=wrap;html=1;align=center;" vertex="1" parent="1">
          <mxGeometry x="348.19999999999993" y="850" width="120" height="40" as="geometry" />
        </mxCell>
        <mxCell id="asSUr_-GE05iVPSnQASm-162" value="&lt;span style=&quot;text-align: left;&quot;&gt;Data_fim&lt;/span&gt;" style="ellipse;whiteSpace=wrap;html=1;align=center;" vertex="1" parent="1">
          <mxGeometry x="348.19999999999993" y="900" width="120" height="40" as="geometry" />
        </mxCell>
        <mxCell id="asSUr_-GE05iVPSnQASm-163" value="&lt;span style=&quot;text-align: left;&quot;&gt;Custo&lt;/span&gt;" style="ellipse;whiteSpace=wrap;html=1;align=center;" vertex="1" parent="1">
          <mxGeometry x="348.19999999999993" y="950" width="120" height="40" as="geometry" />
        </mxCell>
        <mxCell id="asSUr_-GE05iVPSnQASm-164" value="&lt;span style=&quot;text-align: left;&quot;&gt;Intervencao&lt;/span&gt;" style="ellipse;whiteSpace=wrap;html=1;align=center;" vertex="1" parent="1">
          <mxGeometry x="185.67" y="1000" width="120" height="40" as="geometry" />
        </mxCell>
        <mxCell id="asSUr_-GE05iVPSnQASm-170" style="edgeStyle=orthogonalEdgeStyle;rounded=0;orthogonalLoop=1;jettySize=auto;html=1;entryX=0;entryY=0.5;entryDx=0;entryDy=0;endArrow=none;endFill=0;" edge="1" parent="1" source="asSUr_-GE05iVPSnQASm-166" target="asSUr_-GE05iVPSnQASm-160">
          <mxGeometry relative="1" as="geometry" />
        </mxCell>
        <mxCell id="asSUr_-GE05iVPSnQASm-166" value="&lt;div style=&quot;text-align: left;&quot;&gt;ManutencaoId&lt;br&gt;&lt;/div&gt;" style="ellipse;whiteSpace=wrap;html=1;align=center;fontStyle=4;" vertex="1" parent="1">
          <mxGeometry x="185.67" y="850" width="120" height="40" as="geometry" />
        </mxCell>
        <mxCell id="asSUr_-GE05iVPSnQASm-169" style="edgeStyle=orthogonalEdgeStyle;rounded=0;orthogonalLoop=1;jettySize=auto;html=1;endArrow=none;endFill=0;" edge="1" parent="1" source="asSUr_-GE05iVPSnQASm-2" target="asSUr_-GE05iVPSnQASm-164">
          <mxGeometry relative="1" as="geometry">
            <mxPoint x="308" y="1026" as="targetPoint" />
            <Array as="points">
              <mxPoint x="327" y="1020" />
            </Array>
          </mxGeometry>
        </mxCell>
        <mxCell id="asSUr_-GE05iVPSnQASm-178" value="&lt;span style=&quot;font-weight: 700; text-align: left;&quot;&gt;CarId&lt;/span&gt;" style="ellipse;whiteSpace=wrap;html=1;align=center;fontStyle=4;" vertex="1" parent="1">
          <mxGeometry x="35.66999999999996" y="520" width="120" height="40" as="geometry" />
        </mxCell>
        <mxCell id="asSUr_-GE05iVPSnQASm-179" value="&lt;span style=&quot;text-align: left;&quot;&gt;Matricula&lt;/span&gt;" style="ellipse;whiteSpace=wrap;html=1;align=center;" vertex="1" parent="1">
          <mxGeometry x="35.66999999999996" y="570" width="120" height="40" as="geometry" />
        </mxCell>
        <mxCell id="asSUr_-GE05iVPSnQASm-180" value="&lt;span style=&quot;text-align: left;&quot;&gt;Marca&lt;/span&gt;" style="ellipse;whiteSpace=wrap;html=1;align=center;" vertex="1" parent="1">
          <mxGeometry x="35.66999999999996" y="620" width="120" height="40" as="geometry" />
        </mxCell>
        <mxCell id="asSUr_-GE05iVPSnQASm-181" value="&lt;span style=&quot;text-align: left;&quot;&gt;Modelo&lt;/span&gt;" style="ellipse;whiteSpace=wrap;html=1;align=center;" vertex="1" parent="1">
          <mxGeometry x="35.66999999999996" y="670" width="120" height="40" as="geometry" />
        </mxCell>
        <mxCell id="asSUr_-GE05iVPSnQASm-193" style="edgeStyle=orthogonalEdgeStyle;rounded=0;orthogonalLoop=1;jettySize=auto;html=1;endArrow=none;endFill=0;" edge="1" parent="1">
          <mxGeometry relative="1" as="geometry">
            <mxPoint x="157.00000000000009" y="740" as="sourcePoint" />
            <mxPoint x="187.00000000000009" y="740" as="targetPoint" />
          </mxGeometry>
        </mxCell>
        <mxCell id="asSUr_-GE05iVPSnQASm-182" value="&lt;span style=&quot;text-align: left;&quot;&gt;Ano&lt;/span&gt;" style="ellipse;whiteSpace=wrap;html=1;align=center;" vertex="1" parent="1">
          <mxGeometry x="35.66999999999996" y="719" width="120" height="40" as="geometry" />
        </mxCell>
        <mxCell id="asSUr_-GE05iVPSnQASm-183" value="&lt;b style=&quot;text-align: left;&quot;&gt;SegmentoId&lt;/b&gt;" style="ellipse;whiteSpace=wrap;html=1;align=center;" vertex="1" parent="1">
          <mxGeometry x="185.66999999999996" y="520" width="120" height="40" as="geometry" />
        </mxCell>
        <mxCell id="asSUr_-GE05iVPSnQASm-184" value="&lt;span style=&quot;text-align: left;&quot;&gt;Combustivel&lt;/span&gt;" style="ellipse;whiteSpace=wrap;html=1;align=center;" vertex="1" parent="1">
          <mxGeometry x="185.66999999999996" y="570" width="120" height="40" as="geometry" />
        </mxCell>
        <mxCell id="asSUr_-GE05iVPSnQASm-185" value="&lt;span style=&quot;text-align: left;&quot;&gt;KM&lt;/span&gt;" style="ellipse;whiteSpace=wrap;html=1;align=center;" vertex="1" parent="1">
          <mxGeometry x="185.66999999999996" y="620" width="120" height="40" as="geometry" />
        </mxCell>
        <mxCell id="asSUr_-GE05iVPSnQASm-186" value="" style="endArrow=none;html=1;rounded=0;" edge="1" parent="1">
          <mxGeometry relative="1" as="geometry">
            <mxPoint x="154.64" y="540" as="sourcePoint" />
            <mxPoint x="184.64" y="540" as="targetPoint" />
            <Array as="points">
              <mxPoint x="154.64" y="540" />
            </Array>
          </mxGeometry>
        </mxCell>
        <mxCell id="asSUr_-GE05iVPSnQASm-187" value="" style="endArrow=none;html=1;rounded=0;" edge="1" parent="1">
          <mxGeometry relative="1" as="geometry">
            <mxPoint x="154.58000000000004" y="589.74" as="sourcePoint" />
            <mxPoint x="184.58000000000004" y="589.74" as="targetPoint" />
            <Array as="points">
              <mxPoint x="154.58000000000004" y="589.74" />
            </Array>
          </mxGeometry>
        </mxCell>
        <mxCell id="asSUr_-GE05iVPSnQASm-188" value="" style="endArrow=none;html=1;rounded=0;" edge="1" parent="1">
          <mxGeometry relative="1" as="geometry">
            <mxPoint x="154.58000000000004" y="639.74" as="sourcePoint" />
            <mxPoint x="184.58000000000004" y="639.74" as="targetPoint" />
            <Array as="points">
              <mxPoint x="154.58000000000004" y="639.74" />
            </Array>
          </mxGeometry>
        </mxCell>
        <mxCell id="asSUr_-GE05iVPSnQASm-189" value="" style="endArrow=none;html=1;rounded=0;entryX=0.197;entryY=0.954;entryDx=0;entryDy=0;entryPerimeter=0;" edge="1" parent="1" target="asSUr_-GE05iVPSnQASm-8">
          <mxGeometry relative="1" as="geometry">
            <mxPoint x="169" y="740" as="sourcePoint" />
            <mxPoint x="292" y="500" as="targetPoint" />
            <Array as="points">
              <mxPoint x="169" y="500" />
              <mxPoint x="292" y="500" />
            </Array>
          </mxGeometry>
        </mxCell>
        <mxCell id="asSUr_-GE05iVPSnQASm-190" value="" style="endArrow=none;html=1;rounded=0;" edge="1" parent="1">
          <mxGeometry relative="1" as="geometry">
            <mxPoint x="154.61" y="689.66" as="sourcePoint" />
            <mxPoint x="184.61" y="689.66" as="targetPoint" />
            <Array as="points">
              <mxPoint x="154.61" y="689.66" />
            </Array>
          </mxGeometry>
        </mxCell>
        <mxCell id="asSUr_-GE05iVPSnQASm-191" value="&lt;span style=&quot;text-align: left;&quot;&gt;StatusID&lt;/span&gt;" style="ellipse;whiteSpace=wrap;html=1;align=center;" vertex="1" parent="1">
          <mxGeometry x="185.66999999999996" y="670" width="120" height="40" as="geometry" />
        </mxCell>
        <mxCell id="asSUr_-GE05iVPSnQASm-192" value="&lt;span style=&quot;text-align: left;&quot;&gt;Preco_dia&lt;/span&gt;" style="ellipse;whiteSpace=wrap;html=1;align=center;" vertex="1" parent="1">
          <mxGeometry x="185.66999999999996" y="719" width="120" height="40" as="geometry" />
        </mxCell>
      </root>
    </mxGraphModel>
  </diagram>
</mxfile>
